<?xml version="1.0" standalone="no"?>
<!DOCTYPE svg PUBLIC "-//W3C//DTD SVG 20010904//EN"
 "http://www.w3.org/TR/2001/REC-SVG-20010904/DTD/svg10.dtd">
<svg version="1.0" xmlns="http://www.w3.org/2000/svg"
 width="886.000000pt" height="886.000000pt" viewBox="0 0 886.000000 886.000000"
 preserveAspectRatio="xMidYMid meet">
<metadata>
Created by potrace 1.14, written by Peter Selinger 2001-2017
</metadata>
<g transform="translate(0.000000,886.000000) scale(0.100000,-0.100000)"
fill="#000000" stroke="none">
<path d="M3043 6428 c-5 -7 -43 -76 -83 -153 -134 -257 -193 -370 -223 -425
-16 -30 -53 -100 -82 -155 -29 -55 -61 -116 -72 -135 -11 -19 -48 -89 -83
-155 -34 -66 -80 -151 -100 -190 -58 -107 -109 -205 -195 -370 -43 -82 -81
-154 -85 -160 -4 -5 -31 -55 -60 -110 -29 -55 -63 -118 -75 -140 -12 -22 -48
-89 -80 -150 -32 -60 -74 -141 -95 -180 -62 -117 -136 -257 -196 -371 -31 -60
-68 -128 -80 -151 -60 -109 -75 -135 -129 -238 -32 -60 -74 -141 -95 -180 -21
-38 -63 -119 -95 -180 -32 -60 -70 -132 -85 -160 -15 -27 -46 -86 -70 -130
-23 -44 -57 -107 -75 -140 -57 -106 -122 -228 -163 -307 l-41 -78 329 0 c181
0 340 4 353 9 16 6 37 34 62 83 21 40 56 107 78 148 90 169 122 229 166 315
25 50 48 92 51 95 4 3 30 54 59 113 30 60 60 115 68 123 12 11 57 14 237 14
180 0 226 3 235 14 7 8 44 76 82 152 39 77 79 150 88 164 9 14 39 70 66 125
27 55 55 106 62 113 7 7 13 18 13 23 0 5 0 12 0 17 0 4 -92 5 -204 3 -112 -2
-213 0 -225 4 -19 6 -31 35 -13 35 4 0 14 15 21 32 8 18 30 60 49 93 19 33 53
94 75 135 22 41 56 104 75 140 19 36 60 115 92 175 32 61 74 139 94 175 20 36
55 103 78 150 24 47 45 87 48 90 15 15 190 360 190 375 0 8 10 21 22 29 20 14
24 14 40 -1 10 -9 18 -25 18 -36 0 -10 8 -31 19 -45 16 -23 71 -125 163 -302
12 -25 26 -46 31 -48 4 -2 7 -11 7 -21 0 -9 4 -21 9 -27 10 -10 62 -106 130
-239 25 -49 48 -92 52 -95 3 -3 9 -18 13 -34 6 -23 -3 -49 -46 -135 -29 -58
-55 -108 -58 -111 -3 -3 -11 -16 -18 -30 -7 -14 -33 -63 -58 -110 -26 -47 -67
-125 -92 -175 -26 -49 -50 -92 -54 -93 -5 -2 -8 -10 -8 -18 0 -8 -11 -32 -25
-52 -14 -20 -25 -42 -25 -48 0 -7 -3 -14 -8 -16 -4 -1 -30 -48 -57 -103 -27
-55 -52 -102 -55 -105 -3 -3 -17 -27 -31 -55 -15 -27 -50 -95 -79 -150 -29
-55 -64 -120 -78 -145 -14 -25 -44 -81 -67 -125 -22 -44 -52 -100 -67 -125
-14 -25 -50 -92 -80 -150 -134 -253 -151 -286 -158 -295 -5 -5 -10 -18 -12
-28 -3 -16 18 -17 334 -18 185 0 342 2 348 6 6 4 33 50 59 103 60 122 124 245
131 252 3 3 26 46 51 95 126 245 144 280 149 285 4 3 24 41 46 85 21 44 41 82
44 85 3 3 25 43 48 90 24 47 67 130 98 185 30 55 67 126 82 157 32 68 53 73
77 21 24 -53 48 -101 75 -148 13 -22 34 -60 48 -85 14 -25 34 -61 45 -80 11
-19 31 -55 45 -80 27 -48 82 -132 92 -140 3 -3 13 -15 22 -28 15 -22 105 -125
165 -188 129 -138 357 -305 544 -399 99 -51 306 -128 417 -156 186 -47 338
-62 567 -56 310 8 509 53 796 182 264 119 545 332 731 555 132 159 281 417
347 600 7 19 17 44 22 55 15 37 51 170 61 225 5 30 13 78 19 105 19 99 29 283
22 448 -3 92 -10 170 -14 173 -5 3 -9 27 -9 54 0 27 -4 52 -10 55 -5 3 -10 22
-10 41 0 33 -40 196 -59 239 -5 11 -16 39 -25 62 -71 190 -215 438 -345 593
-167 200 -394 383 -621 503 -595 315 -1295 323 -1890 21 -221 -112 -367 -219
-557 -411 -90 -90 -123 -130 -123 -148 0 -23 24 -71 168 -345 30 -58 72 -138
93 -179 21 -41 43 -79 47 -83 6 -6 25 19 48 59 62 111 109 172 223 290 41 43
187 156 260 202 153 97 367 180 521 201 125 18 376 15 495 -4 388 -65 757
-312 977 -657 51 -80 133 -253 155 -329 80 -270 85 -577 12 -845 -6 -22 -13
-50 -16 -63 -3 -12 -9 -25 -14 -28 -5 -3 -9 -12 -9 -20 0 -21 -86 -197 -128
-263 -83 -129 -222 -286 -317 -356 -22 -17 -42 -33 -45 -36 -3 -4 -36 -27 -75
-51 -248 -160 -501 -232 -810 -231 -241 1 -430 46 -640 154 -203 103 -395 270
-538 465 -20 29 -37 55 -37 59 0 4 -8 19 -19 33 -10 15 -44 77 -76 137 -32 61
-74 139 -93 175 -19 36 -51 97 -71 135 -20 39 -38 72 -41 75 -5 5 -65 120
-149 285 -25 50 -48 92 -51 95 -3 3 -19 32 -36 65 -57 110 -147 279 -172 325
-14 25 -41 77 -61 115 -20 39 -38 72 -41 75 -4 3 -25 43 -48 90 -24 47 -53
103 -66 125 -12 22 -51 94 -86 160 -34 66 -85 163 -113 215 -27 52 -73 140
-102 195 -111 212 -155 296 -245 470 -51 99 -96 184 -100 188 -4 4 -11 2 -17
-5z"/>
</g>
</svg>
