<?xml version="1.0" encoding="UTF-8"?>
<svg id="Layer_3" data-name="Layer 3" xmlns="http://www.w3.org/2000/svg" viewBox="0 0 792 612">
  <defs>
    <style>
      .cls-1 {
        fill: #233c78;
      }

      .cls-1, .cls-2 {
        stroke-width: 0px;
      }

      .cls-2 {
        fill: #d23027;
      }
    </style>
  </defs>
  <g>
    <polygon class="cls-2" points="331.27 354.71 362.65 354.71 411.73 262.18 396.02 232.77 331.27 354.71"/>
    <path class="cls-2" d="M484.84,169.94c-29.3,0-55.39,13.65-72.32,34.93l14.85,27.97c10.72-20.84,32.42-35.11,57.47-35.11,35.68,0,64.6,28.92,64.6,64.6s-28.92,64.6-64.6,64.6v27.79c51.02,0,92.38-41.36,92.38-92.38s-41.36-92.38-92.38-92.38Z"/>
  </g>
  <path class="cls-1" d="M429.09,294.94l-69.53-130.94-101.27,190.71h31.28l21.23-39.95h20.7l14.62-27.66h-20.63s34.07-64.11,34.07-64.11l42.06,79.21c1.04,2.18,6.67,11.63,6.67,11.63,17.07,25.29,46,40.84,76.56,40.87v-27.67c-22.82-.04-44.17-12.32-55.76-32.1Z"/>
  <g>
    <g>
      <path class="cls-1" d="M159.09,475.76l-4.84-12.51h-30.58l-4.95,12.51h-18.97l30.38-70.75h18.97l29.67,70.75h-19.68ZM129.22,449.11h19.58l-9.69-25.23-9.89,25.23Z"/>
      <path class="cls-1" d="M185.13,405.01h18.47v55h29.97v15.74h-48.44v-70.75Z"/>
      <path class="cls-1" d="M294.02,411.52c4.98,4.34,7.47,10.45,7.47,18.32,0,8.34-2.49,14.82-7.47,19.43-4.98,4.61-11.98,6.91-20.99,6.91h-12.62v19.58h-18.47v-70.75h31.08c9.02,0,16.01,2.17,20.99,6.51ZM280.85,438.62c2.05-1.88,3.08-4.61,3.08-8.17s-1.03-6.07-3.08-7.92c-2.05-1.85-4.96-2.78-8.73-2.78h-11.71v21.7h11.71c3.77,0,6.68-.94,8.73-2.83Z"/>
      <path class="cls-1" d="M310.57,405.01h18.47v28.86h28.56v-28.86h18.47v70.75h-18.47v-27.15h-28.56v27.15h-18.47v-70.75Z"/>
      <path class="cls-1" d="M441.77,475.76l-4.84-12.51h-30.58l-4.95,12.51h-18.97l30.38-70.75h18.97l29.67,70.75h-19.68ZM411.9,449.11h19.58l-9.69-25.23-9.89,25.23Z"/>
      <path class="cls-1" d="M483.15,405.01h19.88l17.66,51.17,17.76-51.17h18.97l-27.65,70.75h-19.17l-27.45-70.75Z"/>
      <path class="cls-1" d="M564.08,405.01h18.47v70.75h-18.47v-70.75Z"/>
      <path class="cls-1" d="M632.96,420.86c-4.27-1.41-7.86-2.12-10.75-2.12-2.29,0-4.09.42-5.4,1.26-1.31.84-1.97,2.07-1.97,3.68s.57,2.84,1.71,3.89c1.14,1.04,2.56,1.88,4.24,2.52,1.68.64,4.17,1.46,7.47,2.47,4.91,1.41,8.96,2.83,12.16,4.24,3.2,1.41,5.94,3.58,8.23,6.51,2.29,2.93,3.43,6.75,3.43,11.46s-1.25,8.73-3.73,12.06c-2.49,3.33-5.9,5.84-10.24,7.52-4.34,1.68-9.17,2.52-14.48,2.52-5.85,0-11.69-1.03-17.51-3.08-5.82-2.05-10.85-4.86-15.09-8.43l7.17-14.43c3.57,3.16,7.79,5.75,12.67,7.77,4.88,2.02,9.2,3.03,12.97,3.03,2.76,0,4.93-.5,6.51-1.51,1.58-1.01,2.37-2.49,2.37-4.44,0-1.61-.59-2.96-1.77-4.04-1.18-1.08-2.66-1.93-4.44-2.57-1.78-.64-4.29-1.4-7.52-2.27-4.84-1.35-8.85-2.71-12.01-4.09-3.16-1.38-5.87-3.46-8.12-6.26-2.25-2.79-3.38-6.51-3.38-11.15,0-4.37,1.16-8.21,3.48-11.5,2.32-3.3,5.62-5.84,9.89-7.62,4.27-1.78,9.23-2.67,14.89-2.67,5.11,0,10.16.72,15.14,2.17,4.98,1.45,9.35,3.38,13.12,5.8l-6.96,14.73c-3.77-2.22-7.79-4.04-12.06-5.45Z"/>
      <path class="cls-1" d="M713.14,475.76l-4.84-12.51h-30.58l-4.95,12.51h-18.97l30.38-70.75h18.97l29.67,70.75h-19.68ZM683.27,449.11h19.58l-9.69-25.23-9.89,25.23Z"/>
    </g>
    <rect class="cls-2" x="569.11" y="386.93" width="8.51" height="18.67" transform="translate(969.63 -177.09) rotate(90)"/>
  </g>
</svg>